<?xml version="1.0" standalone="no"?>
<!DOCTYPE svg PUBLIC "-//W3C//DTD SVG 20010904//EN"
 "http://www.w3.org/TR/2001/REC-SVG-20010904/DTD/svg10.dtd">
<svg version="1.0" xmlns="http://www.w3.org/2000/svg"
 width="346.000000pt" height="346.000000pt" viewBox="0 0 346.000000 346.000000"
 preserveAspectRatio="xMidYMid meet">
<metadata>
Created by potrace 1.14, written by Peter Selinger 2001-2017
</metadata>
<g transform="translate(0.000000,346.000000) scale(0.100000,-0.100000)"
fill="#000000" stroke="none">
<path d="M733 2896 l-43 -43 132 -131 133 -131 257 0 258 0 131 131 130 131
-42 43 -43 44 -436 0 -435 -1 -42 -43z"/>
<path d="M2290 2895 l-43 -44 130 -130 130 -130 259 0 259 0 128 127 c70 70
127 131 127 136 0 4 -17 26 -39 47 l-39 39 -434 0 -434 0 -44 -45z"/>
<path d="M133 2637 l-131 -132 0 -259 0 -259 128 -129 127 -130 -127 -127
-128 -126 0 -261 0 -261 132 -132 132 -131 42 45 42 46 0 431 0 432 -42 43
-42 43 42 43 42 43 0 434 0 435 -43 42 -43 43 -131 -133z"/>
<path d="M1684 2638 l-131 -133 1 -258 1 -257 130 -130 129 -130 -129 -130
-130 -130 0 -260 -1 -260 131 -130 131 -130 44 45 45 46 0 426 c0 471 5 432
-63 502 l-24 24 41 38 c23 22 42 42 42 46 1 5 2 199 3 433 l2 425 -46 48 -45
48 -131 -133z"/>
<path d="M2119 2724 l-44 -45 0 -432 -1 -432 42 -43 41 -43 -41 -41 -41 -40
-1 -431 -1 -432 46 -47 45 -48 130 133 131 132 -1 258 -1 259 -129 129 -129
129 129 129 129 130 0 260 0 261 -130 130 -129 130 -45 -46z"/>
<path d="M3242 2641 l-132 -131 0 -262 0 -261 129 -129 130 -129 -130 -127
-129 -128 0 -261 0 -262 131 -131 131 -131 43 43 42 43 0 435 1 435 -41 43
-41 42 41 43 41 42 0 434 -1 434 -42 44 -41 45 -132 -131z"/>
<path d="M952 1898 c-9 -3 -53 -43 -97 -87 l-80 -81 87 -87 88 -87 257 -2 258
-1 88 86 c48 47 87 88 87 92 0 3 -38 44 -85 90 l-86 84 -250 0 c-137 0 -257
-3 -267 -7z"/>
<path d="M823 738 l-132 -133 43 -42 44 -43 434 0 434 0 43 44 43 44 -132 131
-132 131 -257 0 -256 0 -132 -132z"/>
<path d="M2378 740 l-132 -130 44 -45 44 -45 433 0 433 0 40 38 c22 20 40 42
40 47 0 6 -57 67 -127 137 l-128 127 -258 1 -258 1 -131 -131z"/>
</g>
</svg>
